<svg xmlns="http://www.w3.org/2000/svg"  viewBox="0 0 128 128" width="64px" height="64px"><path fill="#e6e7e8" d="M121.4,38.5h-48a1,1,0,0,0-1,1V49H58.824L35.6,38.157V29.5H48.1a11.5,11.5,0,1,0,0-23h-27a11.5,11.5,0,0,0,0,23H33.6v8.657L10.179,49.094a1,1,0,0,0,0,1.812L33.6,61.844V70.5h-23a1,1,0,0,0-1,1v21a1,1,0,0,0,1,1h23v9H21.1a11.5,11.5,0,0,0,0,23h27a11.5,11.5,0,1,0,0-23H35.6v-9h23a1,1,0,0,0,1-1V83H97.4a1,1,0,0,0,1-1V61.5h23a1,1,0,0,0,1-1v-21A1,1,0,0,0,121.4,38.5ZM96.4,81H59.6V71.5a1,1,0,0,0-1-1h-23V61.844L58.825,51H72.4v9.5a1,1,0,0,0,1,1h23Z"/><path fill="#fa759e" d="M44.1,3.5h-27a10.5,10.5,0,0,0,0,21h27a10.5,10.5,0,0,0,0-21Z"/><path fill="#fff" d="M17.1,6.5h27a10.493,10.493,0,0,1,10.381,9A10.612,10.612,0,0,0,54.6,14,10.5,10.5,0,0,0,44.1,3.5h-27a10.421,10.421,0,0,0-10.38,12A10.492,10.492,0,0,1,17.1,6.5Z"/><path fill="#fa759e" d="M44.1,99.5h-27a10.5,10.5,0,0,0,0,21h27a10.5,10.5,0,1,0,0-21Z"/><rect width="48" height="21" x="6.602" y="67.5" fill="#6dc9f7"/><rect width="48" height="21" x="69.397" y="35.5" fill="#6dc9f7"/><polygon fill="#0089ef" points="30.602 34.793 6.602 46 30.602 57.206 54.602 46 30.602 34.793"/><path fill="#3a2c60" d="M117.4,34.5h-23a1,1,0,1,0,0,2h22v19h-46v-19h7.636a1,1,0,0,0,0-2H69.4a1,1,0,0,0-1,1V45H54.825L31.6,34.156V25.5H44.1a11.5,11.5,0,1,0,0-23h-27a11.5,11.5,0,0,0,0,23H29.6v8.657L6.179,45.094a1,1,0,0,0,0,1.812L29.6,57.843V66.5H6.6a1,1,0,0,0-1,1v21a1,1,0,0,0,1,1h23v9H17.1a11.5,11.5,0,0,0,0,23h27a11.5,11.5,0,1,0,0-23H31.6v-9h23a1,1,0,0,0,1-1V79H93.4a1,1,0,0,0,1-1V57.5h23a1,1,0,0,0,1-1v-21A1,1,0,0,0,117.4,34.5ZM7.6,14a9.511,9.511,0,0,1,9.5-9.5h27a9.5,9.5,0,1,1,0,19h-27A9.511,9.511,0,0,1,7.6,14Zm46,96a9.511,9.511,0,0,1-9.5,9.5h-27a9.5,9.5,0,0,1,0-19h27A9.511,9.511,0,0,1,53.6,110Zm-23-74.1L52.239,46,30.6,56.1,8.966,46Zm23,51.6H7.6v-19h46ZM92.4,77H55.6V67.5a1,1,0,0,0-1-1h-23V57.843L54.824,47H68.4v9.5a1,1,0,0,0,1,1h23Z"/><path fill="#3a2c60" d="M82.064,36.5h8.125a1,1,0,0,0,0-2H82.064a1,1,0,0,0,0,2Z"/></svg>